<svg width="24" height="24" xmlns="http://www.w3.org/2000/svg" version="1.1">

 <g>
  <title>Layer 1</title>
  <g id="svg_1">
   <path id="svg_2" fill="#663100" d="m3,7.9262l0,2l0,1l0,3l0,1l0,5l0,1c0,1.105 0.8954,2 2,2l14,0c1.105,0 2,-0.895 2,-2l0,-1l0,-5l0,-4l0,-3l-18,0z"/>
   <path id="svg_3" fill="#ecf0f1" d="m3,6.92617l0,2l0,1l0,3l0,1l0,5l0,1c0,1.1 0.8954,2 2,2l14,0c1.105,0 2,-0.9 2,-2l0,-1l0,-5l0,-4l0,-3l-18,0z"/>
   <path id="svg_4" fill="#bdc3c7" d="m3,5.92617l0,2l0,1l0,3l0,1l0,5l0,1c0,1.1 0.8954,2 2,2l14,0c1.105,0 2,-0.9 2,-2l0,-1l0,-5l0,-4l0,-3l-18,0z"/>
   <path id="svg_5" fill="#ecf0f1" d="m3,4.92617l0,2l0,1l0,3l0,1l0,5l0,1c0,1.1 0.8954,2 2,2l14,0c1.105,0 2,-0.9 2,-2l0,-1l0,-5l0,-4l0,-3l-18,0z"/>
   <path id="svg_6" fill="#663100" d="m5,0.9262c-1.1046,0 -2,0.8954 -2,2l0,1l0,4l0,2l0,1l0,3l0,1l0,5l0,1c0,1.105 0.8954,2 2,2l2,0l0,-1l-1.5,0c-0.8284,0 -1.5,-0.672 -1.5,-1.5s0.6716,-1.5 1.5,-1.5l12.5,0l1,0c1.105,0 2,-0.895 2,-2l0,-1l0,-5l0,-4l0,-3l0,-1c0,-1.1046 -0.895,-2 -2,-2l-4,0l-10,0z"/>
   <path id="svg_7" fill="#7f3f00" d="m8,0.9262l0,18l1,0l9,0l1,0c1.105,0 2,-0.895 2,-2l0,-1l0,-5l0,-4l0,-3l0,-1c0,-1.1046 -0.895,-2 -2,-2l-4,0l-6,0l-1,0z"/>
  </g>
  <g>
   <path fill-rule="evenodd" fill="#b58a53" d="m17.27089,13.64681c-0.31665,0.31666 -0.24285,0.72846 -0.34878,1.12963l-1.77575,-1.79289c-0.03855,-0.04074 -0.09418,-0.06634 -0.15515,-0.06634c-0.11769,0 -0.21394,0.09517 -0.21394,0.21394l0,0.07272c0,0.6451 0.27815,1.83897 1.14681,2.7953l-1.02269,1.0217c-0.16585,0.16569 -0.16585,0.43531 0,0.60111c0.16578,0.16593 0.43538,0.16593 0.60012,0l1.01945,-1.02055l0.60981,0.6098l0.52629,-0.47818l0.88904,0.88893c0.16464,0.16593 0.43428,0.16593 0.60005,0c0.16593,-0.1658 0.16593,-0.43541 0,-0.60111l-1.40676,-1.41858c0.40553,-0.11126 0.82051,-0.03311 1.13723,-0.34988l0.95633,-0.95631c0.10596,-0.1049 0.10596,-0.276 0,-0.38184c-0.10593,-0.10602 -0.27703,-0.10602 -0.38194,0l-0.84179,0.84078c-0.06311,0.06309 -0.16593,0.06309 -0.22899,0c-0.06415,-0.06309 -0.06415,-0.16578 0,-0.22887l0.84085,-0.84192c0.10585,-0.1049 0.10585,-0.276 0,-0.38194c-0.10591,-0.10583 -0.27705,-0.10583 -0.38183,0l-0.84201,0.84087c-0.06311,0.06415 -0.16578,0.06415 -0.22891,0c-0.06306,-0.06309 -0.06306,-0.1659 0,-0.22891l0.84089,-0.84192c0.1059,-0.10487 0.1059,-0.27602 0,-0.38194c-0.10595,-0.10592 -0.27703,-0.10592 -0.38195,0l-0.95638,0.9564z" clip-rule="evenodd"/>
  </g>
  <rect id="svg_11" height="3.8806" width="9.0666" y="4.20299" x="8" fill="#e8c69d"/>
  <rect id="svg_12" height="3.8806" width="1.07463" y="4.20299" x="6.93444" fill="#d6a368"/>
 </g>
</svg>